<mxfile host="app.diagrams.net" modified="2020-07-27T09:12:47.794Z" agent="5.0 (Windows)" etag="wrzR7j3KtIFYffniuz2s" version="13.5.3" type="github">
  <diagram name="Page-1" id="13e1069c-82ec-6db2-03f1-153e76fe0fe0">
    <mxGraphModel dx="1185" dy="688" grid="1" gridSize="10" guides="1" tooltips="1" connect="1" arrows="1" fold="1" page="1" pageScale="1" pageWidth="3000" pageHeight="2000" background="#ffffff" math="0" shadow="0">
      <root>
        <mxCell id="0" />
        <mxCell id="1" parent="0" />
        <mxCell id="JqlryfgMJIv1-VmyIzc9-7" value="WordPress site and WordPress REST API" style="shape=note;whiteSpace=wrap;html=1;size=14;verticalAlign=top;align=left;spacingTop=-6;" parent="1" vertex="1">
          <mxGeometry x="1150" y="710" width="100" height="70" as="geometry" />
        </mxCell>
        <mxCell id="JqlryfgMJIv1-VmyIzc9-8" value="Browser" style="shape=umlLifeline;perimeter=lifelinePerimeter;whiteSpace=wrap;html=1;container=1;collapsible=0;recursiveResize=0;outlineConnect=0;" parent="1" vertex="1">
          <mxGeometry x="190" y="800" width="100" height="1040" as="geometry" />
        </mxCell>
        <mxCell id="JqlryfgMJIv1-VmyIzc9-13" value="" style="html=1;points=[];perimeter=orthogonalPerimeter;" parent="JqlryfgMJIv1-VmyIzc9-8" vertex="1">
          <mxGeometry x="45" y="140" width="10" height="140" as="geometry" />
        </mxCell>
        <mxCell id="zZore4M1GCGTvKos9PnM-32" value="" style="html=1;points=[];perimeter=orthogonalPerimeter;" parent="JqlryfgMJIv1-VmyIzc9-8" vertex="1">
          <mxGeometry x="45" y="560" width="10" height="200" as="geometry" />
        </mxCell>
        <mxCell id="zZore4M1GCGTvKos9PnM-34" value="return" style="html=1;verticalAlign=bottom;endArrow=open;dashed=1;endSize=8;exitX=0;exitY=0.95;" parent="JqlryfgMJIv1-VmyIzc9-8" source="zZore4M1GCGTvKos9PnM-32" edge="1">
          <mxGeometry relative="1" as="geometry">
            <mxPoint x="-40" y="750" as="targetPoint" />
          </mxGeometry>
        </mxCell>
        <mxCell id="JqlryfgMJIv1-VmyIzc9-9" value="WordPress" style="shape=umlLifeline;perimeter=lifelinePerimeter;whiteSpace=wrap;html=1;container=1;collapsible=0;recursiveResize=0;outlineConnect=0;" parent="1" vertex="1">
          <mxGeometry x="1150" y="800" width="100" height="1040" as="geometry" />
        </mxCell>
        <mxCell id="JqlryfgMJIv1-VmyIzc9-10" value="" style="html=1;points=[];perimeter=orthogonalPerimeter;" parent="JqlryfgMJIv1-VmyIzc9-9" vertex="1">
          <mxGeometry x="45" y="140" width="10" height="80" as="geometry" />
        </mxCell>
        <mxCell id="NLJbwnEcYg1UQVGaQh75-12" value="" style="html=1;points=[];perimeter=orthogonalPerimeter;" vertex="1" parent="JqlryfgMJIv1-VmyIzc9-9">
          <mxGeometry x="45" y="770" width="10" height="100" as="geometry" />
        </mxCell>
        <mxCell id="NLJbwnEcYg1UQVGaQh75-42" value="" style="html=1;points=[];perimeter=orthogonalPerimeter;" vertex="1" parent="JqlryfgMJIv1-VmyIzc9-9">
          <mxGeometry x="45" y="350" width="10" height="80" as="geometry" />
        </mxCell>
        <mxCell id="JqlryfgMJIv1-VmyIzc9-11" value="2: GET" style="html=1;verticalAlign=bottom;endArrow=block;exitX=1.297;exitY=0.054;exitDx=0;exitDy=0;exitPerimeter=0;" parent="1" source="JqlryfgMJIv1-VmyIzc9-13" target="JqlryfgMJIv1-VmyIzc9-10" edge="1">
          <mxGeometry x="-0.847" relative="1" as="geometry">
            <mxPoint x="190" y="890" as="sourcePoint" />
            <mxPoint x="1" as="offset" />
            <mxPoint x="1180" y="950" as="targetPoint" />
          </mxGeometry>
        </mxCell>
        <mxCell id="JqlryfgMJIv1-VmyIzc9-12" value="3: return frontpage" style="html=1;verticalAlign=bottom;endArrow=open;dashed=1;endSize=8;exitX=0;exitY=0.95;entryX=0.997;entryY=0.546;entryDx=0;entryDy=0;entryPerimeter=0;" parent="1" source="JqlryfgMJIv1-VmyIzc9-10" target="JqlryfgMJIv1-VmyIzc9-13" edge="1">
          <mxGeometry x="0.842" relative="1" as="geometry">
            <mxPoint x="260" y="1056" as="targetPoint" />
            <mxPoint as="offset" />
          </mxGeometry>
        </mxCell>
        <mxCell id="JqlryfgMJIv1-VmyIzc9-15" value="Standard WordPress page without Vue JS in user browser" style="shape=note;whiteSpace=wrap;html=1;size=14;verticalAlign=top;align=left;spacingTop=-6;" parent="1" vertex="1">
          <mxGeometry x="190" y="710" width="100" height="70" as="geometry" />
        </mxCell>
        <mxCell id="JqlryfgMJIv1-VmyIzc9-16" value="Vuex Store" style="shape=umlLifeline;perimeter=lifelinePerimeter;whiteSpace=wrap;html=1;container=1;collapsible=0;recursiveResize=0;outlineConnect=0;" parent="1" vertex="1">
          <mxGeometry x="990" y="800" width="100" height="1040" as="geometry" />
        </mxCell>
        <mxCell id="zZore4M1GCGTvKos9PnM-37" value="" style="html=1;points=[];perimeter=orthogonalPerimeter;" parent="JqlryfgMJIv1-VmyIzc9-16" vertex="1">
          <mxGeometry x="45" y="630" width="10" height="50" as="geometry" />
        </mxCell>
        <mxCell id="NLJbwnEcYg1UQVGaQh75-20" value="" style="html=1;points=[];perimeter=orthogonalPerimeter;" vertex="1" parent="JqlryfgMJIv1-VmyIzc9-16">
          <mxGeometry x="45" y="910" width="10" height="80" as="geometry" />
        </mxCell>
        <mxCell id="NLJbwnEcYg1UQVGaQh75-39" value="" style="html=1;points=[];perimeter=orthogonalPerimeter;" vertex="1" parent="JqlryfgMJIv1-VmyIzc9-16">
          <mxGeometry x="45" y="340" width="10" height="100" as="geometry" />
        </mxCell>
        <mxCell id="JqlryfgMJIv1-VmyIzc9-17" value="Vue Router" style="shape=umlLifeline;perimeter=lifelinePerimeter;whiteSpace=wrap;html=1;container=1;collapsible=0;recursiveResize=0;outlineConnect=0;" parent="1" vertex="1">
          <mxGeometry x="510" y="800" width="100" height="1040" as="geometry" />
        </mxCell>
        <mxCell id="zZore4M1GCGTvKos9PnM-14" value="" style="html=1;points=[];perimeter=orthogonalPerimeter;" parent="JqlryfgMJIv1-VmyIzc9-17" vertex="1">
          <mxGeometry x="45" y="580" width="10" height="80" as="geometry" />
        </mxCell>
        <mxCell id="zZore4M1GCGTvKos9PnM-1" value="Controls Component" style="shape=umlLifeline;perimeter=lifelinePerimeter;whiteSpace=wrap;html=1;container=1;collapsible=0;recursiveResize=0;outlineConnect=0;" parent="1" vertex="1">
          <mxGeometry x="670" y="800" width="100" height="1040" as="geometry" />
        </mxCell>
        <mxCell id="zZore4M1GCGTvKos9PnM-20" value="" style="html=1;points=[];perimeter=orthogonalPerimeter;" parent="zZore4M1GCGTvKos9PnM-1" vertex="1">
          <mxGeometry x="45" y="330" width="10" height="400" as="geometry" />
        </mxCell>
        <mxCell id="NLJbwnEcYg1UQVGaQh75-29" value="mark &#39;Beach&#39; checkbox" style="edgeStyle=orthogonalEdgeStyle;html=1;align=left;spacingLeft=2;endArrow=block;rounded=0;entryX=1;entryY=0;" edge="1" parent="zZore4M1GCGTvKos9PnM-1" source="zZore4M1GCGTvKos9PnM-20">
          <mxGeometry relative="1" as="geometry">
            <mxPoint x="60" y="660" as="sourcePoint" />
            <Array as="points">
              <mxPoint x="85" y="660" />
              <mxPoint x="85" y="680" />
            </Array>
            <mxPoint x="65" y="680" as="targetPoint" />
          </mxGeometry>
        </mxCell>
        <mxCell id="zZore4M1GCGTvKos9PnM-2" value="Google Maps Component" style="shape=umlLifeline;perimeter=lifelinePerimeter;whiteSpace=wrap;html=1;container=1;collapsible=0;recursiveResize=0;outlineConnect=0;" parent="1" vertex="1">
          <mxGeometry x="830" y="800" width="100" height="1040" as="geometry" />
        </mxCell>
        <mxCell id="NLJbwnEcYg1UQVGaQh75-2" value="" style="html=1;points=[];perimeter=orthogonalPerimeter;" vertex="1" parent="zZore4M1GCGTvKos9PnM-2">
          <mxGeometry x="45" y="760" width="10" height="210" as="geometry" />
        </mxCell>
        <mxCell id="zZore4M1GCGTvKos9PnM-21" value="category to display" style="html=1;verticalAlign=bottom;endArrow=block;" parent="1" source="zZore4M1GCGTvKos9PnM-14" target="zZore4M1GCGTvKos9PnM-20" edge="1">
          <mxGeometry relative="1" as="geometry">
            <mxPoint x="580" y="1180" as="sourcePoint" />
            <mxPoint x="710" y="1420" as="targetPoint" />
          </mxGeometry>
        </mxCell>
        <mxCell id="zZore4M1GCGTvKos9PnM-23" value="" style="shape=umlLifeline;participant=umlActor;perimeter=lifelinePerimeter;whiteSpace=wrap;html=1;container=1;collapsible=0;recursiveResize=0;verticalAlign=top;spacingTop=36;outlineConnect=0;" parent="1" vertex="1">
          <mxGeometry x="70" y="800" width="20" height="1040" as="geometry" />
        </mxCell>
        <mxCell id="zZore4M1GCGTvKos9PnM-24" value="1: go to site.com" style="html=1;verticalAlign=bottom;endArrow=block;" parent="zZore4M1GCGTvKos9PnM-23" target="JqlryfgMJIv1-VmyIzc9-8" edge="1">
          <mxGeometry width="80" relative="1" as="geometry">
            <mxPoint x="10" y="100" as="sourcePoint" />
            <mxPoint x="90" y="100" as="targetPoint" />
          </mxGeometry>
        </mxCell>
        <mxCell id="zZore4M1GCGTvKos9PnM-27" value="query string" style="html=1;verticalAlign=bottom;endArrow=block;entryX=0.004;entryY=-0.001;entryDx=0;entryDy=0;entryPerimeter=0;" parent="1" source="zZore4M1GCGTvKos9PnM-42" target="zZore4M1GCGTvKos9PnM-14" edge="1">
          <mxGeometry x="-0.0003" width="80" relative="1" as="geometry">
            <mxPoint x="410" y="1179" as="sourcePoint" />
            <mxPoint x="330" y="1120" as="targetPoint" />
            <mxPoint as="offset" />
          </mxGeometry>
        </mxCell>
        <mxCell id="zZore4M1GCGTvKos9PnM-28" value="4: display frontpage" style="html=1;verticalAlign=bottom;endArrow=open;dashed=1;endSize=8;exitX=0.014;exitY=0.93;exitDx=0;exitDy=0;exitPerimeter=0;" parent="1" source="JqlryfgMJIv1-VmyIzc9-13" target="zZore4M1GCGTvKos9PnM-23" edge="1">
          <mxGeometry relative="1" as="geometry">
            <mxPoint x="200" y="1070" as="sourcePoint" />
            <mxPoint x="120" y="1070" as="targetPoint" />
          </mxGeometry>
        </mxCell>
        <mxCell id="zZore4M1GCGTvKos9PnM-33" value="5: click &#39;Beaches Nearby&#39; card" style="html=1;verticalAlign=bottom;endArrow=block;entryX=0;entryY=0;" parent="1" source="zZore4M1GCGTvKos9PnM-23" target="zZore4M1GCGTvKos9PnM-32" edge="1">
          <mxGeometry relative="1" as="geometry">
            <mxPoint x="165" y="1160" as="sourcePoint" />
          </mxGeometry>
        </mxCell>
        <mxCell id="zZore4M1GCGTvKos9PnM-38" value="category name" style="html=1;verticalAlign=bottom;endArrow=block;entryX=0;entryY=0;" parent="1" source="zZore4M1GCGTvKos9PnM-20" target="zZore4M1GCGTvKos9PnM-37" edge="1">
          <mxGeometry x="-0.5161" relative="1" as="geometry">
            <mxPoint x="965" y="1190" as="sourcePoint" />
            <mxPoint as="offset" />
          </mxGeometry>
        </mxCell>
        <mxCell id="zZore4M1GCGTvKos9PnM-40" value="App Component" style="shape=umlLifeline;perimeter=lifelinePerimeter;whiteSpace=wrap;html=1;container=1;collapsible=0;recursiveResize=0;outlineConnect=0;" parent="1" vertex="1">
          <mxGeometry x="345" y="800" width="110" height="1040" as="geometry" />
        </mxCell>
        <mxCell id="zZore4M1GCGTvKos9PnM-42" value="" style="html=1;points=[];perimeter=orthogonalPerimeter;" parent="zZore4M1GCGTvKos9PnM-40" vertex="1">
          <mxGeometry x="50" y="320" width="10" height="520" as="geometry" />
        </mxCell>
        <mxCell id="NLJbwnEcYg1UQVGaQh75-1" value="App is the main component" style="shape=note;whiteSpace=wrap;html=1;size=14;verticalAlign=top;align=left;spacingTop=-6;" vertex="1" parent="zZore4M1GCGTvKos9PnM-40">
          <mxGeometry x="-15" y="590" width="110" height="40" as="geometry" />
        </mxCell>
        <mxCell id="zZore4M1GCGTvKos9PnM-41" value="WP page with VueJS app mounted to &amp;lt;app&amp;gt; div" style="shape=note;whiteSpace=wrap;html=1;size=14;verticalAlign=top;align=left;spacingTop=-6;" parent="1" vertex="1">
          <mxGeometry x="350" y="710" width="100" height="70" as="geometry" />
        </mxCell>
        <mxCell id="zZore4M1GCGTvKos9PnM-45" value="6: GET" style="html=1;verticalAlign=bottom;endArrow=block;" parent="1" source="zZore4M1GCGTvKos9PnM-32" target="zZore4M1GCGTvKos9PnM-42" edge="1">
          <mxGeometry width="80" relative="1" as="geometry">
            <mxPoint x="280" y="1170" as="sourcePoint" />
            <mxPoint x="360" y="1170" as="targetPoint" />
          </mxGeometry>
        </mxCell>
        <mxCell id="zZore4M1GCGTvKos9PnM-48" value="site.com/map/#/?category=beach" style="shape=note;whiteSpace=wrap;html=1;size=11;verticalAlign=top;align=left;spacingTop=-6;" parent="1" vertex="1">
          <mxGeometry x="70" y="1382.5" width="200" height="35" as="geometry" />
        </mxCell>
        <mxCell id="NLJbwnEcYg1UQVGaQh75-3" value="load child component" style="html=1;verticalAlign=bottom;endArrow=block;entryX=0;entryY=0;" edge="1" target="NLJbwnEcYg1UQVGaQh75-2" parent="1" source="zZore4M1GCGTvKos9PnM-42">
          <mxGeometry x="-0.6809" relative="1" as="geometry">
            <mxPoint x="805" y="1360" as="sourcePoint" />
            <mxPoint as="offset" />
          </mxGeometry>
        </mxCell>
        <mxCell id="NLJbwnEcYg1UQVGaQh75-13" value="geolocate by IP" style="html=1;verticalAlign=bottom;endArrow=block;entryX=0;entryY=0;" edge="1" target="NLJbwnEcYg1UQVGaQh75-12" parent="1" source="NLJbwnEcYg1UQVGaQh75-2">
          <mxGeometry x="-0.5161" relative="1" as="geometry">
            <mxPoint x="910" y="1370" as="sourcePoint" />
            <mxPoint as="offset" />
          </mxGeometry>
        </mxCell>
        <mxCell id="NLJbwnEcYg1UQVGaQh75-14" value="City/town coordinates" style="html=1;verticalAlign=bottom;endArrow=open;dashed=1;endSize=8;exitX=0;exitY=0.95;" edge="1" source="NLJbwnEcYg1UQVGaQh75-12" parent="1" target="NLJbwnEcYg1UQVGaQh75-2">
          <mxGeometry x="0.5161" relative="1" as="geometry">
            <mxPoint x="1125" y="1446" as="targetPoint" />
            <mxPoint as="offset" />
          </mxGeometry>
        </mxCell>
        <mxCell id="NLJbwnEcYg1UQVGaQh75-15" value="don&#39;t ask user exact location for simplicity" style="shape=note;whiteSpace=wrap;html=1;size=14;verticalAlign=top;align=left;spacingTop=-6;" vertex="1" parent="1">
          <mxGeometry x="895" y="1580" width="135" height="50" as="geometry" />
        </mxCell>
        <mxCell id="NLJbwnEcYg1UQVGaQh75-21" value="user coordinates" style="html=1;verticalAlign=bottom;endArrow=block;entryX=0;entryY=0;" edge="1" target="NLJbwnEcYg1UQVGaQh75-20" parent="1" source="NLJbwnEcYg1UQVGaQh75-2">
          <mxGeometry relative="1" as="geometry">
            <mxPoint x="950" y="1500" as="sourcePoint" />
            <mxPoint as="offset" />
          </mxGeometry>
        </mxCell>
        <mxCell id="NLJbwnEcYg1UQVGaQh75-30" value="load child component" style="html=1;verticalAlign=bottom;endArrow=block;" edge="1" parent="1" target="zZore4M1GCGTvKos9PnM-20">
          <mxGeometry x="-0.5172" width="80" relative="1" as="geometry">
            <mxPoint x="405" y="1130" as="sourcePoint" />
            <mxPoint x="690" y="1141" as="targetPoint" />
            <mxPoint as="offset" />
          </mxGeometry>
        </mxCell>
        <mxCell id="NLJbwnEcYg1UQVGaQh75-40" value="ask vuex to get categories" style="html=1;verticalAlign=bottom;endArrow=block;entryX=0;entryY=0;" edge="1" target="NLJbwnEcYg1UQVGaQh75-39" parent="1" source="zZore4M1GCGTvKos9PnM-20">
          <mxGeometry x="-0.5161" relative="1" as="geometry">
            <mxPoint x="770" y="1140" as="sourcePoint" />
            <mxPoint as="offset" />
          </mxGeometry>
        </mxCell>
        <mxCell id="NLJbwnEcYg1UQVGaQh75-43" value="get categories" style="html=1;verticalAlign=bottom;endArrow=block;entryX=0;entryY=0;" edge="1" target="NLJbwnEcYg1UQVGaQh75-42" parent="1" source="NLJbwnEcYg1UQVGaQh75-39">
          <mxGeometry relative="1" as="geometry">
            <mxPoint x="1125" y="1150" as="sourcePoint" />
          </mxGeometry>
        </mxCell>
        <mxCell id="NLJbwnEcYg1UQVGaQh75-44" value="categories JSON" style="html=1;verticalAlign=bottom;endArrow=open;dashed=1;endSize=8;exitX=0;exitY=0.95;" edge="1" source="NLJbwnEcYg1UQVGaQh75-42" parent="1" target="NLJbwnEcYg1UQVGaQh75-39">
          <mxGeometry relative="1" as="geometry">
            <mxPoint x="1125" y="1226" as="targetPoint" />
          </mxGeometry>
        </mxCell>
        <mxCell id="NLJbwnEcYg1UQVGaQh75-41" value="get categories from vuex" style="html=1;verticalAlign=bottom;endArrow=open;dashed=1;endSize=8;exitX=0;exitY=0.95;" edge="1" source="NLJbwnEcYg1UQVGaQh75-39" parent="1" target="zZore4M1GCGTvKos9PnM-20">
          <mxGeometry x="0.5161" relative="1" as="geometry">
            <mxPoint x="960" y="1235" as="targetPoint" />
            <mxPoint as="offset" />
          </mxGeometry>
        </mxCell>
      </root>
    </mxGraphModel>
  </diagram>
</mxfile>
